HIERARCHY
ROOT Hips
{
  OFFSET 0.000000 0.000000 0.000000
  CHANNELS 6 Xposition Yposition Zposition Zrotation Yrotation Xrotation
  JOINT Spine
  {
    OFFSET -0.031383 2.039826 -0.231057
    CHANNELS 3 Zrotation Yrotation Xrotation
    JOINT Spine1
    {
      OFFSET -0.003250 2.062381 -0.068782
      CHANNELS 3 Zrotation Yrotation Xrotation
      JOINT Spine2
      {
        OFFSET 0.012045 2.084311 0.039502
        CHANNELS 3 Zrotation Yrotation Xrotation
        JOINT Neck
        {
          OFFSET -0.000019 1.753182 0.180902
          CHANNELS 3 Zrotation Yrotation Xrotation
          JOINT Head
          {
            OFFSET 0.025540 1.785965 -0.106842
            CHANNELS 3 Zrotation Yrotation Xrotation
            End Site
            {
              OFFSET 0 0 0
            }
          }
        }
        JOINT LeftShoulder
        {
          OFFSET 3.096568 1.335974 -0.044144
          CHANNELS 3 Zrotation Yrotation Xrotation
          JOINT LeftArm
          {
            OFFSET 5.342980 -0.000000 -0.000000
            CHANNELS 3 Zrotation Yrotation Xrotation
            JOINT LeftForeArm
            {
              OFFSET 3.672620 -0.000000 -0.000000
              CHANNELS 3 Zrotation Yrotation Xrotation
              JOINT LeftHand
              {
                OFFSET 0.599298 -0.000000 -0.000000
                CHANNELS 3 Zrotation Yrotation Xrotation
                JOINT LeftHandIndex1
                {
                  OFFSET 0.483170 -0.000000 -0.000000
                  CHANNELS 3 Zrotation Yrotation Xrotation
                  End Site
                  {
                    OFFSET 0 0 0
                  }
                }
              }
            }
          }
        }
        JOINT RightShoulder
        {
          OFFSET -3.164597 1.322727 -0.233822
          CHANNELS 3 Zrotation Yrotation Xrotation
          JOINT RightArm
          {
            OFFSET -5.549667 -0.018343 0.033481
            CHANNELS 3 Zrotation Yrotation Xrotation
            JOINT RightForeArm
            {
              OFFSET -3.694010 -0.000000 0.000000
              CHANNELS 3 Zrotation Yrotation Xrotation
              JOINT RightHand
              {
                OFFSET -0.638113 -0.000000 0.000000
                CHANNELS 3 Zrotation Yrotation Xrotation
                JOINT RightHandIndex1
                {
                  OFFSET -0.514463 -0.000000 0.000000
                  CHANNELS 3 Zrotation Yrotation Xrotation
                  End Site
                  {
                    OFFSET 0 0 0
                  }
                }
              }
            }
          }
        }
      }
    }
  }
  JOINT LeftUpLeg
  {
    OFFSET 2.630390 -7.226944 0.000000
    CHANNELS 3 Zrotation Yrotation Xrotation
    JOINT LeftLeg
    {
      OFFSET 2.706743 -7.436721 0.000000
      CHANNELS 3 Zrotation Yrotation Xrotation
      JOINT LeftFoot
      {
        OFFSET 0.150663 -0.413945 2.090267
        CHANNELS 3 Zrotation Yrotation Xrotation
        JOINT LeftToeBase
        {
          OFFSET 0.000000 -0.000000 1.075180
          CHANNELS 3 Zrotation Yrotation Xrotation
          End Site
          {
            OFFSET 0 0 0
          }
        }
      }
    }
  }
  JOINT RightUpLeg
  {
    OFFSET -2.570232 -7.061661 0.000000
    CHANNELS 3 Zrotation Yrotation Xrotation
    JOINT RightLeg
    {
      OFFSET -2.764606 -7.595698 0.000000
      CHANNELS 3 Zrotation Yrotation Xrotation
      JOINT RightFoot
      {
        OFFSET -0.241754 -0.647854 2.197187
        CHANNELS 3 Zrotation Yrotation Xrotation
        JOINT RightToeBase
        {
          OFFSET -0.000000 -0.000000 1.148030
          CHANNELS 3 Zrotation Yrotation Xrotation
          End Site
          {
            OFFSET 0 0 0
          }
        }
      }
    }
  }
}
MOTION
Frames: 6
Frame Time: 0.00833333
6.163130 11.279700 10.620600 200.525000 -21.262100 166.483000 1.940150 16.746200 -85.595900 0.000000 0.000000 87.807800 -12.705800 0.000000 8.629580 0.000000 0.000000 15.898100 -6.305380 -1.548340 -46.241800 0.000000 0.000000 70.604500 -8.183460 0.000000 -0.705382 0.000000 0.000000 -19.037000 -19.197600 14.753100 42.643800 -6.885430 1.993510 16.783800 0.396938 -2.624530 -0.016305 -16.801500 -19.271200 -4.110560 11.740700 -15.635500 6.477040 0.000000 0.000000 0.000000 27.537100 3.356670 45.479000 0.000000 0.000000 112.596000 18.937900 0.000000 -9.328770 0.000000 0.000000 7.125020 0.000000 0.000000 0.000000 -50.751200 -26.965700 -26.718300 0.000000 0.000000 146.732000 50.460400 0.000000 -41.261500 0.000000 0.000000 7.125020
6.153810 11.288500 10.615000 200.949000 -21.186300 166.333000 1.847570 17.339300 -85.761300 0.000000 0.000000 87.826400 -13.307500 0.000000 8.577180 0.000000 0.000000 14.750500 -6.194370 -0.294101 -46.289900 0.000000 0.000000 70.831300 -7.848250 0.000000 0.367266 0.000000 0.000000 -24.971600 -19.571200 14.755600 42.208100 -6.559240 1.999750 17.051600 0.901997 -2.717360 0.371544 -17.611000 -19.409200 -5.521590 11.544600 -15.489900 7.092430 -0.000000 -0.000000 0.000000 28.116200 4.675470 44.253700 0.000000 0.000000 112.451000 19.171700 0.000000 -8.687590 0.000000 0.000000 7.125020 -0.000000 -0.000000 0.000000 -50.926900 -26.456800 -25.907600 0.000000 0.000000 146.753000 51.102400 0.000000 -41.890600 0.000000 0.000000 7.125020
6.132010 11.297300 10.614300 200.907000 -21.333400 166.105000 1.405920 17.366900 -85.551600 0.000000 0.000000 87.873300 -13.613900 0.000000 8.360600 0.000000 0.000000 14.710700 -6.564570 0.536585 -45.958600 0.000000 0.000000 71.022700 -6.834740 0.000000 1.503640 0.000000 0.000000 -33.260400 -20.038600 15.013600 42.047900 -6.365700 2.142710 17.202300 1.228620 -2.733760 0.584164 -17.621700 -19.385900 -5.694070 11.445000 -15.391500 7.087190 0.000000 -0.000000 0.000000 28.498000 5.475070 43.457700 0.000000 0.000000 112.161000 19.015400 0.000000 -8.665030 0.000000 0.000000 7.125020 0.000000 -0.000000 0.000000 -50.969100 -26.148500 -25.800800 0.000000 0.000000 146.641000 52.639700 0.000000 -42.863000 0.000000 0.000000 7.125020
6.105560 11.305100 10.614100 201.245000 -21.534000 165.814000 1.287400 17.378000 -85.565800 0.000000 0.000000 87.945800 -14.043200 0.000000 8.371830 0.000000 0.000000 14.989300 -6.516450 0.976784 -45.723000 0.000000 0.000000 71.278200 -6.637710 0.000000 1.975480 0.000000 0.000000 -35.570500 -19.935500 15.355600 41.915200 -6.312980 2.744160 16.944800 1.054750 -2.369070 0.267613 -16.738900 -19.049300 -3.412730 11.781800 -15.425700 6.200010 0.000000 0.000000 0.000000 28.646900 4.775860 43.290700 0.000000 0.000000 111.889000 18.726000 0.000000 -9.214700 0.000000 0.000000 7.125020 0.000000 0.000000 0.000000 -50.449200 -26.157400 -27.833100 0.000000 0.000000 146.819000 53.610400 0.000000 -44.292100 0.000000 0.000000 7.125020
6.072070 11.304600 10.628300 201.366000 -21.900300 165.567000 1.056480 17.021700 -85.659100 0.000000 0.000000 88.097600 -14.088500 0.000000 8.327030 0.000000 0.000000 15.179800 -6.768810 1.193690 -45.430900 0.000000 0.000000 71.529100 -7.780750 0.000000 1.736430 0.000000 0.000000 -30.460900 -19.741400 15.451000 42.331800 -6.252460 2.824270 16.877100 0.989848 -2.305280 0.102612 -16.916700 -18.980500 -3.166800 11.976300 -15.429600 6.276580 0.000000 0.000000 0.000000 29.075300 4.809050 42.794700 0.000000 0.000000 111.670000 18.719000 0.000000 -9.696530 0.000000 0.000000 7.125020 0.000000 0.000000 0.000000 -50.336500 -26.118400 -28.510000 0.000000 0.000000 147.176000 54.120800 0.000000 -44.577800 0.000000 0.000000 7.125020
6.038860 11.297500 10.643400 201.188000 -22.325300 165.475000 0.559579 16.552600 -85.798200 0.000000 0.000000 88.287600 -13.772200 0.000000 8.207490 0.000000 0.000000 15.865600 -7.291980 1.275210 -45.175000 0.000000 0.000000 71.727000 -9.333730 0.000000 0.638716 0.000000 0.000000 -18.442500 -19.754300 15.486800 42.661200 -6.316120 2.730940 16.868800 0.932614 -2.347890 0.051624 -17.178800 -18.995600 -3.725910 11.957300 -15.370300 6.690520 -0.000000 -0.000000 0.000000 29.363700 5.181270 42.130800 0.000000 0.000000 111.327000 18.777100 0.000000 -10.137700 0.000000 0.000000 7.125020 -0.000000 -0.000000 0.000000 -50.549800 -25.952100 -28.826100 0.000000 0.000000 147.141000 53.967300 0.000000 -45.582300 0.000000 0.000000 7.125020
